<?xml version="1.0" standalone="no"?>
<!DOCTYPE svg PUBLIC "-//W3C//DTD SVG 20010904//EN"
 "http://www.w3.org/TR/2001/REC-SVG-20010904/DTD/svg10.dtd">
<svg version="1.0" xmlns="http://www.w3.org/2000/svg"
 width="301.000000pt" height="301.000000pt" viewBox="0 0 301.000000 301.000000"
 preserveAspectRatio="xMidYMid meet">
<metadata>
Created by potrace 1.11, written by Peter Selinger 2001-2013
</metadata>
<g transform="translate(0.000000,301.000000) scale(0.100000,-0.100000)"
fill="#000000" stroke="none">
<path d="M1113 2994 c-36 -15 -70 -58 -101 -126 -12 -27 -28 -49 -35 -49 -6
-1 -167 -2 -357 -3 -190 -1 -356 -6 -369 -10 -53 -18 -61 -40 -60 -178 0 -71
4 -128 9 -128 5 0 11 -9 15 -19 3 -11 20 -24 37 -30 22 -8 402 -11 1255 -11
1370 0 1282 -5 1304 69 6 21 9 84 7 144 -3 101 -4 108 -31 134 l-27 28 -370 1
c-204 0 -371 3 -373 5 -1 2 -18 36 -38 74 -27 54 -44 75 -75 92 -38 22 -44 23
-399 22 -285 0 -367 -4 -392 -15z"/>
<path d="M397 2252 c-15 -3 -17 -14 -12 -80 2 -42 7 -120 9 -172 2 -52 7 -129
11 -170 3 -41 8 -111 10 -155 5 -106 15 -283 20 -370 3 -38 7 -119 10 -180 3
-60 8 -130 11 -155 3 -25 7 -88 9 -140 3 -52 7 -131 11 -175 6 -83 8 -117 19
-300 8 -134 16 -168 55 -227 31 -47 80 -85 140 -109 54 -22 1554 -21 1624 1
95 29 178 134 190 240 3 25 8 99 11 165 4 66 8 143 10 170 12 181 16 258 20
315 2 36 7 117 10 180 4 63 8 133 10 155 2 22 7 90 10 150 3 61 8 137 11 170
3 33 7 105 9 160 3 55 7 127 10 160 2 33 7 101 10 150 3 50 7 118 11 153 4 47
2 62 -8 63 -30 3 -2206 4 -2221 1z"/>
</g>
</svg>
